<svg xmlns="http://www.w3.org/2000/svg" viewBox="0 0 64 64" role="img" aria-labelledby="title">
  <title>Contta</title>
  <defs>
    <linearGradient id="g" x1="0%" y1="0%" x2="100%" y2="100%">
      <stop offset="0%" stop-color="#4aa8ff" />
      <stop offset="100%" stop-color="#102a43" />
    </linearGradient>
  </defs>
  <rect width="64" height="64" rx="18" fill="url(#g)" />
  <path
    d="M43.5 21.5c-2.8-3.1-6.7-4.8-11.1-4.8-8.4 0-14.9 6.5-14.9 15.3 0 8.8 6.5 15.3 14.9 15.3 4.3 0 8.2-1.7 11-4.8l-4.2-4.1c-1.7 1.8-4 2.7-6.8 2.7-5 0-8.7-3.8-8.7-9.2 0-5.3 3.7-9.2 8.7-9.2 2.7 0 5.1.9 6.8 2.7l4.3-3.9Z"
    fill="#ffffff"
  />
</svg>
