<svg xmlns="http://www.w3.org/2000/svg" viewBox="352 810 356 440" role="img" aria-labelledby="title">
  <title id="title">Contta</title>
  <path
    fill="#134176"
    d="M545.041 835.495 577.682 835.338C554.957 871.569 533.664 910.792 511.455 947.731 500.846 967.693 484.008 991.227 475.717 1011.96 467.682 1032.05 497.61 1073.82 507.716 1091.13L577.725 1211.28C555.11 1211.77 530.516 1211.25 507.75 1211.21 486.679 1211.47 472.03 1206.27 461.029 1187.01 438.054 1146.72 415.649 1106.38 391.974 1066.45 385.789 1056.02 374.718 1038.7 373.666 1026.34 373.211 1020.99 375.797 1008.01 378.109 1003.67 388.107 984.897 399.83 966.011 410.539 947.64 420.818 930.04 430.967 912.365 440.985 894.616 477.531 830.24 471.68 835.45 545.041 835.495Z"
  />
  <path
    fill="#2ea7a1"
    d="M632.098 835.296C645.565 834.308 658.659 838.171 668.206 848.075 678.175 858.437 682.328 873.083 679.282 887.135 673.603 914.022 627.847 971.71 615.212 1000.36 602.275 1029.7 611.458 1039.56 625.632 1063.64L658.269 1118.27C667.327 1133.38 681.168 1152.21 680.652 1170.27 680.283 1181.99 675.185 1193.07 666.519 1200.97 656.061 1210.67 644.621 1212.28 631.146 1211.83 619.476 1209.81 606.155 1202.55 600.045 1192.11 570.93 1142.35 541.68 1092.4 512.675 1042.59 499.761 1020.41 516.091 996.67 527.482 977.41L551.836 936.152C567.59 909.462 583.264 881.978 599.44 855.565 606.634 843.816 618.73 837.746 632.098 835.296Z"
  />
</svg>
