<svg xmlns="http://www.w3.org/2000/svg" viewBox="340 800 1360 450" role="img" aria-labelledby="title">
  <title id="title">Contta</title>
  <path
    fill="#134176"
    d="M545.041 835.495 577.682 835.338C554.957 871.569 533.664 910.792 511.455 947.731 500.846 967.693 484.008 991.227 475.717 1011.96 467.682 1032.05 497.61 1073.82 507.716 1091.13L577.725 1211.28C555.11 1211.77 530.516 1211.25 507.75 1211.21 486.679 1211.47 472.03 1206.27 461.029 1187.01 438.054 1146.72 415.649 1106.38 391.974 1066.45 385.789 1056.02 374.718 1038.7 373.666 1026.34 373.211 1020.99 375.797 1008.01 378.109 1003.67 388.107 984.897 399.83 966.011 410.539 947.64 420.818 930.04 430.967 912.365 440.985 894.616 477.531 830.24 471.68 835.45 545.041 835.495Z"
  />
  <path
    fill="#2ea7a1"
    d="M632.098 835.296C645.565 834.308 658.659 838.171 668.206 848.075 678.175 858.437 682.328 873.083 679.282 887.135 673.603 914.022 627.847 971.71 615.212 1000.36 602.275 1029.7 611.458 1039.56 625.632 1063.64L658.269 1118.27C667.327 1133.38 681.168 1152.21 680.652 1170.27 680.283 1181.99 675.185 1193.07 666.519 1200.97 656.061 1210.67 644.621 1212.28 631.146 1211.83 619.476 1209.81 606.155 1202.55 600.045 1192.11 570.93 1142.35 541.68 1092.4 512.675 1042.59 499.761 1020.41 516.091 996.67 527.482 977.41L551.836 936.152C567.59 909.462 583.264 881.978 599.44 855.565 606.634 843.816 618.73 837.746 632.098 835.296Z"
  />
  <path
    fill="#134176"
    d="M998.663 962.514C1043.81 957.102 1084.83 989.23 1090.39 1034.36 1095.95 1079.49 1063.95 1120.61 1018.84 1126.32 973.524 1132.05 932.169 1099.88 926.584 1054.54 920.998 1009.2 953.307 967.951 998.663 962.514Z"
  />
  <path
    fill="#ffffff"
    d="M1007.37 1005.31C1048.94 1004.71 1060.58 1072.42 1012.5 1083.25 962.636 1083.1 959.242 1012.56 1007.37 1005.31Z"
  />
  <path
    fill="#134176"
    d="M822.796 919.404C859.92 915.115 889.692 929.973 915.479 955.235 906.105 964.247 893.816 979.035 884.991 989.088 874.232 978.342 862.561 968.817 847.603 964.767 833.485 960.854 818.385 962.793 805.713 970.146 792.166 978.053 782.396 991.105 778.626 1006.33 774.707 1022.45 777.338 1039.46 785.941 1053.63 793.53 1066.13 805.894 1074.98 820.167 1078.14 837.769 1081.99 855.869 1076.83 869.933 1066 874.229 1062.69 879.836 1057.24 884.041 1054.57L889.335 1059.71C897.787 1068.22 906.814 1076.79 915.427 1085.19 910.225 1090.28 905.08 1095.24 899.512 1099.93 861.312 1132.13 800.621 1133.4 761.883 1101.19 740.86 1083.67 727.759 1058.45 725.528 1031.18 719.937 969.425 762.721 925.159 822.796 919.404Z"
  />
  <path
    fill="#134176"
    d="M1599.27 965.417C1618.31 964.102 1642.58 967.416 1656.84 981.288 1677.97 1001.85 1673.37 1036.96 1673.3 1064.09L1673.34 1121.03 1626.63 1121.01C1626.53 1115.38 1626.21 1109.49 1625.98 1103.84 1611.65 1119.08 1598.83 1124.65 1577.64 1124.34 1561.88 1124.11 1548.29 1119.09 1537.22 1107.38 1531.17 1100.05 1527.37 1091.12 1526.29 1081.67 1524.94 1069.95 1528.35 1056.42 1536.06 1047.7 1556.3 1024.84 1593.08 1030.41 1620.28 1029.48 1623.09 1029.38 1623.84 1028.34 1625.21 1026.33 1625.87 1017.54 1620.23 1007.23 1611.21 1004.86 1589.81 999.246 1568.51 1005.31 1549.36 1015.06 1545.1 1004.48 1541 991.753 1537.22 980.808 1557.57 970.881 1576.93 966.987 1599.27 965.417Z"
  />
  <path
    fill="#ffffff"
    d="M1595.54 1055.34C1604.91 1054.83 1615.54 1055.16 1625 1055.25 1625.3 1073.58 1624.48 1083.46 1604.98 1089.69 1596.4 1091.38 1588.44 1092.3 1580.83 1086.9 1576.97 1084.2 1574.39 1080.02 1573.7 1075.35 1571.66 1061.38 1584.23 1056.55 1595.54 1055.34Z"
  />
  <path
    fill="#134176"
    d="M1209.77 965.37C1247.8 961.219 1270.3 985.425 1271.04 1022.26 1271.27 1033.7 1271.22 1045.17 1271.21 1056.63L1271.07 1121.23 1222.78 1121.16C1222.5 1093.2 1223.62 1065.12 1222.6 1037.19 1221.47 1006.17 1188.57 997.326 1170.72 1022.06 1160.82 1042.11 1167.93 1094.88 1165.43 1121.14L1116.97 1121.14 1116.92 967.553 1164.15 967.72 1165.06 991.141C1166.36 989.037 1167.78 987.014 1169.33 985.085 1179.96 971.572 1193.68 967.374 1209.77 965.37Z"
  />
  <path
    fill="#134176"
    d="M1425.46 926.93 1474.09 926.878 1474.16 969.86C1486.66 969.692 1499.17 969.609 1511.67 969.609 1511.92 981.371 1511.78 993.701 1511.81 1005.51L1473.97 1005.26C1474.07 1023.05 1471.52 1057.31 1475.99 1074.28 1479.62 1088.1 1498.35 1082.62 1508.99 1077.78 1511.04 1086.3 1513.25 1094.79 1515.61 1103.23L1518.35 1113.44C1494.25 1125.09 1460.92 1131.69 1438.69 1111.38 1421.8 1095.97 1425.24 1067.03 1425.32 1045.99L1425.24 1006.08 1404 1006.1 1404.23 969.493 1425.39 969.431 1425.46 926.93Z"
  />
  <path
    fill="#134176"
    d="M1309.3 926.919 1357.94 926.887 1357.97 969.8 1395.17 969.709C1395.25 981.525 1395.44 993.341 1395.74 1005.15L1357.7 1005.12C1357.88 1026.85 1355.43 1053.26 1359.35 1073.98 1362.1 1088.54 1383.79 1081.43 1392.03 1078.13L1399.14 1105.79 1401.07 1113.3C1377.71 1124.99 1344.44 1131.41 1322.6 1111.75 1306.38 1097.16 1308.97 1070.87 1309 1051.12 1309.02 1036.38 1309.1 1021.12 1309.1 1006.12L1287.92 1006.42 1287.99 969.76 1309.24 969.791C1309.13 955.501 1309.15 941.209 1309.3 926.919Z"
  />
</svg>
